<svg width="125" height="40" viewBox="0 0 125 40" fill="none" xmlns="http://www.w3.org/2000/svg">
<g clip-path="url(#clip0_204_7)">
<path d="M65.9451 9.82192C65.9422 10.3214 65.7914 10.8087 65.5119 11.2226C65.2323 11.6364 64.8364 11.9582 64.3742 12.1473C63.9119 12.3365 63.404 12.3845 62.9145 12.2853C62.425 12.186 61.9759 11.9441 61.6238 11.5899C61.2716 11.2357 61.0323 10.7852 60.9359 10.2952C60.8395 9.80512 60.8905 9.2975 61.0822 8.83636C61.274 8.37522 61.5981 7.9812 62.0136 7.70403C62.429 7.42685 62.9173 7.27892 63.4167 7.27892C63.7499 7.2793 64.0797 7.34544 64.3872 7.47356C64.6947 7.60167 64.974 7.78923 65.2089 8.02549C65.4438 8.26175 65.6297 8.54205 65.756 8.85032C65.8824 9.15859 65.9466 9.48877 65.9451 9.82192ZM55.5196 14.949V15.5744C55.0425 15.0545 54.4577 14.645 53.8059 14.3745C53.1541 14.104 52.4512 13.9791 51.7461 14.0085C50.7349 13.9975 49.732 14.1919 48.7981 14.5799C47.8643 14.968 47.0189 15.5416 46.3133 16.266C45.6077 16.9904 45.0564 17.8505 44.693 18.7942C44.3296 19.7379 44.1616 20.7456 44.1992 21.7562C44.1616 22.7668 44.3296 23.7744 44.693 24.7181C45.0564 25.6619 45.6077 26.522 46.3133 27.2464C47.0189 27.9708 47.8643 28.5444 48.7981 28.9324C49.732 29.3205 50.7349 29.5149 51.7461 29.5039C52.4559 29.537 53.164 29.4093 53.8174 29.1303C54.4708 28.8513 55.0527 28.4281 55.5196 27.8925V28.5649C55.5176 28.6371 55.5303 28.709 55.557 28.7762C55.5836 28.8434 55.6236 28.9044 55.6746 28.9557C55.7255 29.0069 55.7864 29.0473 55.8534 29.0743C55.9205 29.1013 55.9923 29.1144 56.0646 29.1127H59.2067V14.3996H56.0616C55.9176 14.4037 55.7808 14.4631 55.6793 14.5653C55.5779 14.6676 55.5196 14.8049 55.5167 14.949H55.5196ZM55.5196 24.3783C55.1612 24.8789 54.6881 25.2864 54.1399 25.5667C53.5917 25.847 52.9844 25.992 52.3687 25.9896C51.7947 26.0336 51.2179 25.9558 50.6761 25.7612C50.1344 25.5667 49.6398 25.2599 49.2249 24.8608C48.8099 24.4618 48.484 23.9796 48.2685 23.4458C48.0529 22.9121 47.9526 22.3388 47.9741 21.7635C47.9526 21.1883 48.0529 20.6149 48.2685 20.0812C48.484 19.5474 48.8099 19.0652 49.2249 18.6662C49.6398 18.2672 50.1344 17.9603 50.6761 17.7658C51.2179 17.5713 51.7947 17.4934 52.3687 17.5374C52.9828 17.5435 53.5872 17.6922 54.134 17.9719C54.6808 18.2515 55.1551 18.6544 55.5196 19.1487V24.3783ZM61.5505 14.3996H65.2844V29.1142H61.5505V14.3996ZM117.331 14.0085C116.625 13.9787 115.922 14.1034 115.269 14.3738C114.616 14.6443 114.031 15.0541 113.553 15.5744V7.32433H109.818V29.1142H112.967C113.111 29.1105 113.248 29.0514 113.349 28.9493C113.45 28.8473 113.508 28.7101 113.511 28.5663V27.9013C113.982 28.4316 114.564 28.8512 115.217 29.1297C115.869 29.4083 116.575 29.5391 117.284 29.5126C118.295 29.521 119.298 29.3245 120.231 28.9351C121.164 28.5457 122.009 27.9714 122.714 27.2468C123.419 26.5222 123.971 25.6623 124.335 24.7189C124.699 23.7755 124.868 22.7682 124.833 21.7576C124.868 20.7508 124.7 19.7472 124.338 18.8069C123.977 17.8666 123.429 17.009 122.728 16.2854C122.027 15.5618 121.187 14.9872 120.259 14.596C119.33 14.2047 118.333 14.0049 117.325 14.0085H117.331ZM116.708 25.9442C116.092 25.9507 115.483 25.8074 114.934 25.5268C114.386 25.2461 113.913 24.8364 113.558 24.3329V19.0887C113.935 18.6077 114.412 18.2145 114.956 17.9362C115.5 17.658 116.098 17.5014 116.708 17.4773C117.283 17.4331 117.859 17.5108 118.401 17.7052C118.943 17.8997 119.438 18.2065 119.853 18.6056C120.268 19.0047 120.594 19.4869 120.809 20.0208C121.025 20.5547 121.125 21.1281 121.103 21.7034C121.127 22.2804 121.028 22.8558 120.814 23.3918C120.599 23.9278 120.273 24.4121 119.857 24.8129C119.441 25.2136 118.945 25.5217 118.402 25.7167C117.858 25.9117 117.28 25.9893 116.704 25.9442H116.708ZM107.878 20.388V29.1508H104.143V20.8157C104.143 18.3899 103.365 17.4114 101.266 17.4114C100.687 17.4289 100.118 17.5668 99.5958 17.8162C99.0732 18.0657 98.6083 18.4212 98.2307 18.8601V29.1142H94.4938V14.4011H97.4484C97.5924 14.4045 97.7295 14.4634 97.8311 14.5655C97.9326 14.6676 97.9908 14.805 97.9934 14.949V15.5744C98.5116 15.0549 99.1312 14.6478 99.8137 14.3784C100.496 14.1089 101.227 13.983 101.96 14.0085C103.449 13.9578 104.905 14.4598 106.046 15.4177C107.364 16.5134 107.874 17.9212 107.874 20.388H107.878ZM85.4278 14.0085C84.7227 13.9792 84.0198 14.1042 83.368 14.3746C82.7163 14.6451 82.1314 15.0546 81.6543 15.5744V7.32433H77.9218V29.1142H81.0727C81.2172 29.1112 81.3549 29.0523 81.4568 28.9498C81.5587 28.8473 81.6169 28.7094 81.6191 28.5649V27.8998C82.0903 28.4302 82.6729 28.8497 83.3253 29.1283C83.9777 29.4069 84.6837 29.5376 85.3926 29.5112C86.403 29.5193 87.4046 29.3229 88.3371 28.9338C89.2696 28.5448 90.1138 27.9711 90.8189 27.2473C91.5239 26.5235 92.0753 25.6646 92.4397 24.7222C92.8042 23.7797 92.9742 22.7733 92.9396 21.7635C92.9826 20.7542 92.8196 19.7466 92.4605 18.8024C92.1013 17.8581 91.5536 16.9969 90.8507 16.2712C90.1478 15.5456 89.3045 14.9707 88.3721 14.5817C87.4398 14.1927 86.438 13.9976 85.4278 14.0085ZM84.8052 25.9442C84.1888 25.9507 83.58 25.8074 83.0312 25.5268C82.4824 25.2461 82.0099 24.8364 81.6543 24.3329V19.0887C82.0312 18.6076 82.5082 18.2143 83.0523 17.9361C83.5964 17.6578 84.1945 17.5013 84.8052 17.4773C85.3792 17.4331 85.9561 17.5108 86.498 17.7052C87.0399 17.8997 87.5346 18.2065 87.9495 18.6056C88.3645 19.0047 88.6904 19.4869 88.9059 20.0208C89.1214 20.5547 89.2215 21.1281 89.1998 21.7034C89.2236 22.2798 89.1251 22.8547 88.9106 23.3903C88.6962 23.9258 88.3707 24.4099 87.9557 24.8105C87.5406 25.2112 87.0454 25.5194 86.5026 25.7148C85.9599 25.9102 85.3804 25.9884 84.8052 25.9442ZM74.6976 14.0085C75.2732 13.9919 75.8482 14.0595 76.4042 14.2092V17.6912C75.5352 17.4012 74.603 17.3573 73.7106 17.5641C72.8182 17.7709 72.0003 18.2205 71.3475 18.8631V29.1508H67.6121V14.3996H70.7645C70.9082 14.4034 71.0449 14.4624 71.1461 14.5645C71.2474 14.6666 71.3053 14.8038 71.3079 14.9475V15.573C72.1981 14.6422 73.4075 14.0828 74.6932 14.007L74.6976 14.0085ZM35.9153 27.7826C35.7205 27.3139 35.5257 26.8041 35.3294 26.3734C35.0174 25.6688 34.7068 25.0038 34.4344 24.3783L34.3948 24.3387C31.7097 18.469 28.8283 12.5217 25.7975 6.65195L25.6803 6.41611C25.361 5.8077 25.05 5.19441 24.7472 4.57624C24.3639 3.80793 23.8941 3.08595 23.3468 2.42435C22.7623 1.67164 22.0139 1.06208 21.1585 0.641987C20.3031 0.221898 19.3632 0.00234001 18.4102 0C17.4593 0.00336909 16.5206 0.214943 15.6602 0.619855C14.7997 1.02477 14.0384 1.61319 13.4297 2.34378C12.8952 3.0147 12.4262 3.73529 12.0293 4.49567C11.7255 5.11287 11.4145 5.72616 11.0961 6.33554L10.979 6.57139C7.98477 12.444 5.06823 18.3914 2.38459 24.2611L2.34504 24.3387C2.07258 24.9657 1.7591 25.6307 1.45001 26.3339C1.2547 26.7646 1.05938 27.2343 0.864065 27.7431C0.366346 29.0927 0.20593 30.5435 0.396773 31.9692C0.602719 33.3979 1.17736 34.7482 2.06407 35.8872C2.95079 37.0261 4.11896 37.9144 5.45349 38.4644C6.45022 38.8854 7.52246 39.0982 8.60441 39.0899C8.94306 39.0832 9.28104 39.0568 9.61663 39.0108C10.9884 38.8356 12.3105 38.3841 13.5029 37.6837C15.3225 36.5958 16.9548 35.2217 18.337 33.6143C19.7248 35.212 21.3521 36.5848 23.1608 37.6837C24.3539 38.3854 25.677 38.8379 27.05 39.0138C27.3855 39.0599 27.7235 39.0864 28.0622 39.0929C29.1445 39.1051 30.2176 38.8921 31.2131 38.4674C32.5485 37.9186 33.7174 37.0307 34.6043 35.8915C35.4912 34.7523 36.0653 33.4013 36.2698 31.9722C36.5565 30.5718 36.4344 29.1185 35.9183 27.7856L35.9153 27.7826ZM18.3707 29.8173C16.5516 27.7032 15.2113 25.2207 14.4419 22.5399C14.252 21.7586 14.2122 20.9483 14.3247 20.1522C14.4013 19.5633 14.6145 19.0004 14.9473 18.5086C15.336 17.9661 15.8506 17.526 16.4469 17.2262C17.0432 16.9264 17.7033 16.7758 18.3707 16.7874C19.0401 16.7626 19.7049 16.9074 20.3034 17.2083C20.9019 17.5092 21.4146 17.9565 21.794 18.5086C22.1265 19.0006 22.3396 19.5634 22.4166 20.1522C22.5295 20.9483 22.4897 21.7586 22.2994 22.5399C21.5122 25.2133 20.1739 27.6924 18.3707 29.8173ZM33.8894 31.6572C33.6799 33.1739 32.8799 34.5464 31.6635 35.4761C30.4471 36.4059 28.9127 36.8176 27.3942 36.6216C26.3493 36.4904 25.3428 36.1443 24.4381 35.605C22.7655 34.5866 21.2682 33.305 20.004 31.8096C22.2019 29.3186 23.8106 26.3646 24.7106 23.1668C24.9641 22.0771 25.03 20.9521 24.9054 19.8401C24.7616 18.8852 24.4024 17.9755 23.8551 17.1799C23.239 16.3021 22.4166 15.5892 21.4603 15.1038C20.5039 14.6185 19.4429 14.3757 18.3707 14.3967C17.2998 14.3841 16.2418 14.6306 15.2869 15.1152C14.3319 15.5999 13.5083 16.3082 12.8862 17.1799C12.3391 17.9756 11.9799 18.8853 11.8359 19.8401C11.6718 20.9507 11.7381 22.0831 12.0307 23.1668C12.9443 26.3722 14.5511 29.3377 16.7373 31.8535C15.4817 33.3581 13.9824 34.6411 12.3017 35.649C11.3974 36.1889 10.3908 36.5351 9.34563 36.6656C8.34311 36.7781 7.3283 36.6438 6.38953 36.2745C5.45088 35.8871 4.63017 35.2604 4.0092 34.4569C3.38822 33.6535 2.98869 32.7013 2.85042 31.6953C2.72208 30.6648 2.84213 29.6186 3.20052 28.644C3.31625 28.2529 3.51107 27.8617 3.7059 27.3915C3.97837 26.7646 4.29185 26.0995 4.60093 25.4345L4.64049 25.3568C7.32412 19.5267 10.207 13.5778 13.1982 7.78722L13.3154 7.55138C13.6274 6.96544 13.938 6.33847 14.2485 5.75106C14.5422 5.13565 14.9081 4.55736 15.3384 4.02838C15.7202 3.57476 16.1966 3.2101 16.7342 2.95994C17.2718 2.70978 17.8576 2.58015 18.4505 2.58015C19.0434 2.58015 19.6292 2.70978 20.1668 2.95994C20.7044 3.2101 21.1808 3.57476 21.5626 4.02838C21.9924 4.55772 22.3582 5.13595 22.6525 5.75106C22.9645 6.33701 23.275 6.96397 23.5856 7.55138L23.7028 7.78722C26.652 13.6018 29.4914 19.471 32.221 25.3949V25.4345C32.533 26.0614 32.8069 26.7646 33.116 27.3915C33.3108 27.8603 33.5056 28.2514 33.6214 28.6425C33.9418 29.6123 34.0345 30.6429 33.8924 31.6543L33.8894 31.6572Z" fill="#9D9D9D"/>
</g>
<defs>
<clipPath id="clip0_204_7">
<rect width="124.514" height="39.0914" fill="white" transform="translate(0.319)"/>
</clipPath>
</defs>
</svg>
