<svg width="90" height="36" viewBox="0 0 90 36" fill="none" xmlns="http://www.w3.org/2000/svg">
<g clip-path="url(#clip0_204_4)">
<path d="M27.5422 11.0472C28.5774 9.9498 29.8453 9.09506 31.254 8.54492C32.6626 7.99479 34.1768 7.76302 35.6867 7.86642C41.3813 7.89603 46.6608 11.6837 46.5379 18.2025C46.5274 18.7808 46.4764 19.3576 46.3853 19.9289C47.9081 15.8581 55.4308 15.303 57.6777 15.2827C58.9995 15.2827 62.9647 15.2678 62.9647 15.2678C62.9852 12.6218 62.1419 10.851 57.5251 10.7715C53.5897 10.6993 52.5826 12.6514 52.3405 13.4175H47.519C48.7477 7.12628 57.8378 7.89603 57.8378 7.89603C67.3078 8.2661 67.5405 13.1048 67.6485 15.3844L67.6615 15.6287V28.2203L63.4655 28.2425L63.2793 24.8527C61.4903 26.9991 59.0833 28.1981 54.8574 28.2203C50.7433 28.2407 45.5178 26.5439 46.1172 21.152C44.8141 25.7631 40.6497 28.2203 35.5936 28.2203C29.5527 28.2203 27.4863 25.0118 27.4863 25.0118L27.2946 28.2203H22.9831V18.9686H5.18811C5.25392 20.7006 5.99634 22.3389 7.25773 23.5357C8.51911 24.7324 10.2001 25.3934 11.9439 25.3782C16.9981 25.467 17.914 22.0846 17.914 22.0846L22.5829 22.0698C22.5829 22.0698 22.0877 28.2203 11.9234 28.2203C0.0985014 28.2203 0.64395 18.4135 0.64395 18.4135C0.593687 16.243 0.64395 7.86642 11.8135 7.86642C21.1681 7.86642 22.7616 14.2131 22.9831 17.3032V0.464996H27.5422V11.0472ZM27.572 18.1229C27.572 18.1229 27.4547 25.4023 34.646 25.3153C35.5879 25.3381 36.5249 25.1725 37.4011 24.8282C38.2773 24.4839 39.0749 23.9681 39.7465 23.3112C40.418 22.6544 40.9499 21.8701 41.3104 21.0048C41.6709 20.1396 41.8526 19.2111 41.8449 18.2747C41.8449 18.2747 41.9528 10.5994 34.6312 10.7789C33.6735 10.7701 32.7242 10.9566 31.842 11.3269C30.9597 11.6971 30.1631 12.2432 29.5016 12.9315C28.84 13.6198 28.3274 14.4356 27.9956 15.3285C27.6637 16.2214 27.5195 17.1725 27.572 18.1229ZM12.0891 10.7363C11.283 10.6533 10.4684 10.7295 9.69218 10.9607C8.91593 11.1919 8.19337 11.5735 7.56612 12.0834C6.93886 12.5934 6.41931 13.2217 6.03738 13.9321C5.65546 14.6424 5.41871 15.4209 5.34076 16.2226H18.4892C18.4892 16.2226 18.4892 10.7289 12.0891 10.7363ZM50.8103 22.0124C51.0802 25.4744 55.6505 25.467 55.6505 25.467C63.8415 25.5669 63.0094 18.16 63.015 18.16H57.8397C57.8397 18.16 50.5218 18.3172 50.8047 22.0124H50.8103Z" fill="#9D9D9D"/>
<path d="M64.753 7.86642H69.9655L77.6092 23.0097L85.2808 7.86642H90L76.1758 35.6218H71.1234L75.124 27.3599L64.753 7.86642Z" fill="#9D9D9D"/>
</g>
<defs>
<clipPath id="clip0_204_4">
<rect width="89.3567" height="35.1568" fill="white" transform="translate(0.64325 0.464996)"/>
</clipPath>
</defs>
</svg>
