<svg width="153" height="33" viewBox="0 0 153 33" fill="none" xmlns="http://www.w3.org/2000/svg">
<path d="M152.346 15.1151V12.4298H149.018V8.26439L148.907 8.29836L145.72 9.26894V12.4298H140.788V10.6698C140.74 10.0036 140.933 9.34247 141.331 8.8063C141.523 8.59592 141.76 8.43088 142.023 8.32316C142.287 8.21544 142.571 8.16774 142.855 8.18351C143.355 8.18868 143.847 8.29891 144.301 8.50704L144.424 8.56204V5.74734L144.366 5.73279C143.767 5.54615 143.141 5.46086 142.514 5.48043C141.601 5.46602 140.7 5.68248 139.893 6.1097C139.135 6.51771 138.511 7.13547 138.095 7.8891C137.662 8.68971 137.442 9.58831 137.457 10.4983V12.4298H135.146V15.1151H137.462V26.4014H140.788V15.1151H145.72V22.2861C145.72 25.2431 147.113 26.7378 149.861 26.7378C150.336 26.7334 150.81 26.6792 151.273 26.5761C151.63 26.5164 151.976 26.4075 152.302 26.2525L152.346 26.2267V23.5171L152.21 23.6061C152.004 23.7365 151.778 23.8336 151.542 23.894C151.329 23.9599 151.108 23.9974 150.885 24.0056C150.626 24.0284 150.365 23.994 150.12 23.9048C149.876 23.8156 149.654 23.6739 149.47 23.4896C149.12 22.9621 148.961 22.3309 149.018 21.7005V15.1151H152.346ZM127.717 24.0121C127.187 24.0398 126.657 23.9472 126.167 23.7414C125.677 23.5355 125.24 23.2216 124.888 22.8231C124.159 21.8619 123.798 20.6711 123.871 19.4665C123.791 18.2332 124.149 17.0113 124.882 16.0161C125.226 15.6146 125.657 15.297 126.143 15.0876C126.628 14.8782 127.155 14.7825 127.683 14.8077C128.196 14.7831 128.707 14.8739 129.179 15.0736C129.652 15.2732 130.073 15.5765 130.412 15.9611C131.141 16.9455 131.494 18.1575 131.409 19.3792C131.493 20.6054 131.163 21.8245 130.472 22.8409C130.135 23.237 129.71 23.5488 129.231 23.7515C128.752 23.9543 128.232 24.0424 127.713 24.0089L127.717 24.0121ZM127.865 12.0901C126.87 12.0355 125.874 12.1853 124.939 12.5302C124.004 12.8752 123.15 13.4081 122.429 14.096C121.755 14.8326 121.234 15.6962 120.897 16.6363C120.559 17.5764 120.413 18.5743 120.466 19.5717C120.417 20.527 120.562 21.4822 120.892 22.3802C121.221 23.2782 121.728 24.1006 122.382 24.7983C123.064 25.4529 123.872 25.9617 124.756 26.2938C125.641 26.6259 126.584 26.7742 127.528 26.7297C128.509 26.7779 129.488 26.622 130.406 26.272C131.323 25.922 132.157 25.3855 132.857 24.6964C133.525 23.9671 134.043 23.1126 134.38 22.1823C134.717 21.2519 134.867 20.2641 134.82 19.2757C134.925 17.3466 134.263 15.4544 132.978 14.0119C132.305 13.3549 131.504 12.8449 130.624 12.5141C129.744 12.1833 128.803 12.0389 127.865 12.0901ZM115.101 12.0901C113.718 12.0315 112.357 12.4521 111.248 13.2807C110.771 13.6428 110.387 14.1124 110.126 14.6513C109.865 15.1902 109.735 15.7831 109.747 16.3817C109.735 16.9747 109.845 17.5638 110.071 18.1126C110.294 18.6166 110.635 19.0601 111.064 19.4067C111.683 19.8728 112.362 20.2537 113.083 20.539C113.658 20.7652 114.22 21.0267 114.763 21.322C115.05 21.4714 115.302 21.6785 115.504 21.9302C115.652 22.1672 115.724 22.4438 115.71 22.7228C115.71 23.6595 115.008 24.1172 113.561 24.1172C112.942 24.1028 112.328 23.9909 111.743 23.7856C111.078 23.5685 110.45 23.2504 109.881 22.8426L109.742 22.7439V25.9533L109.792 25.9775C110.358 26.2247 110.949 26.4076 111.556 26.5227C112.174 26.6578 112.805 26.7304 113.438 26.7394C114.891 26.8154 116.326 26.393 117.505 25.5424C117.99 25.1704 118.38 24.6892 118.643 24.1379C118.906 23.5866 119.035 22.9809 119.019 22.3702C119.045 21.4996 118.758 20.6487 118.211 19.9712C117.441 19.172 116.492 18.5676 115.443 18.208C114.736 17.9712 114.071 17.6252 113.471 17.1824C113.334 17.0401 113.228 16.8712 113.16 16.6861C113.091 16.501 113.062 16.3037 113.073 16.1067C113.07 15.9124 113.115 15.7203 113.202 15.547C113.29 15.3737 113.419 15.2243 113.578 15.1119C113.992 14.8249 114.49 14.6843 114.993 14.7123C115.563 14.7095 116.129 14.7907 116.675 14.9533C117.198 15.1056 117.694 15.3358 118.147 15.636L118.283 15.7298V12.7016L118.232 12.6789C117.75 12.4868 117.249 12.3469 116.737 12.2616C116.197 12.1584 115.648 12.1042 115.098 12.0998L115.101 12.0901ZM101.08 24.0121C100.549 24.0398 100.019 23.9472 99.5291 23.7414C99.0391 23.5355 98.6021 23.2216 98.2505 22.8231C97.5223 21.8625 97.1619 20.673 97.2346 19.4698C97.1573 18.2367 97.5176 17.016 98.2521 16.0226C98.5961 15.621 99.0274 15.3033 99.513 15.0939C99.9986 14.8845 100.526 14.7888 101.054 14.8142C101.566 14.7895 102.077 14.8804 102.55 15.08C103.022 15.2797 103.444 15.583 103.783 15.9676C104.511 16.952 104.865 18.164 104.779 19.3857C104.864 20.6119 104.534 21.831 103.843 22.8474C103.505 23.2435 103.08 23.5553 102.601 23.7578C102.122 23.9604 101.602 24.048 101.083 24.0137L101.08 24.0121ZM101.229 12.0933C100.234 12.0386 99.238 12.1883 98.3032 12.5333C97.3683 12.8783 96.5141 13.4113 95.7933 14.0992C95.118 14.8349 94.5961 15.6977 94.2578 16.6373C93.9195 17.5769 93.7717 18.5744 93.823 19.5717C93.7751 20.5271 93.9204 21.4823 94.25 22.3804C94.5796 23.2784 95.0869 24.1007 95.7415 24.7983C96.4236 25.4535 97.2322 25.9627 98.1178 26.2948C99.0033 26.6269 99.9473 26.7749 100.892 26.7297C101.873 26.7779 102.852 26.622 103.77 26.272C104.687 25.922 105.521 25.3855 106.221 24.6964C106.889 23.9671 107.407 23.1126 107.744 22.1823C108.081 21.2519 108.231 20.2641 108.184 19.2757C108.289 17.3466 107.627 15.4544 106.342 14.0119C105.669 13.3553 104.867 12.8458 103.987 12.5155C103.107 12.1852 102.167 12.0415 101.229 12.0933ZM88.7727 14.8433V12.4298H85.4938V26.3965H88.7792V19.2498C88.7319 18.1992 89.0184 17.1607 89.5977 16.283C89.8299 15.9339 90.1457 15.6485 90.5164 15.4527C90.8871 15.2569 91.3009 15.1569 91.7201 15.162C92.0544 15.167 92.3866 15.2154 92.7084 15.306C92.979 15.3664 93.2375 15.4713 93.4736 15.6166L93.6127 15.7169V12.4055L93.5593 12.3829C93.1447 12.2344 92.7052 12.1679 92.2652 12.1872C91.4624 12.1794 90.6833 12.4588 90.0685 12.975C89.493 13.4807 89.0578 14.1265 88.8051 14.8498L88.7727 14.8433ZM79.604 12.0933C78.2122 12.0655 76.8368 12.3964 75.61 13.0542C74.4842 13.6756 73.569 14.6184 72.9813 15.7621C72.3607 17.0075 72.0505 18.3844 72.0771 19.7755C72.0609 21.0299 72.3637 22.2678 72.9571 23.3731C73.5205 24.4207 74.3743 25.2834 75.4159 25.8578C76.5185 26.4515 77.755 26.7522 79.007 26.7314C80.3878 26.7756 81.7559 26.4554 82.9735 25.8028L83.0172 25.7786V22.7698L82.8781 22.8701C82.3862 23.227 81.8444 23.5093 81.2701 23.708C80.7661 23.8965 80.2341 23.9998 79.6962 24.0137C79.1284 24.0411 78.5612 23.9486 78.0316 23.742C77.502 23.5355 77.0219 23.2196 76.6226 22.8151C75.8271 21.8977 75.4209 20.7063 75.4903 19.494C75.431 18.2475 75.8559 17.0263 76.676 16.0857C77.0681 15.6669 77.5451 15.3367 78.0752 15.1174C78.6053 14.8981 79.1762 14.7948 79.7495 14.8142C80.8816 14.8322 81.9779 15.2139 82.8764 15.9029L83.0139 16.0032V12.8277L82.9686 12.8019C82.4901 12.5559 81.9776 12.3825 81.4481 12.2875C80.8444 12.1594 80.2292 12.0933 79.612 12.0901L79.604 12.0933ZM69.8092 12.4298H66.5302V26.3965H69.8156L69.8092 12.4298ZM68.2012 6.48014C67.6833 6.4732 67.1833 6.66949 66.8084 7.0269C66.6192 7.20064 66.4691 7.41268 66.3681 7.64892C66.2672 7.88516 66.2176 8.14018 66.2228 8.39704C66.2173 8.64914 66.266 8.89949 66.3656 9.13114C66.4653 9.36278 66.6135 9.57031 66.8003 9.73968C67.1814 10.0942 67.6857 10.2863 68.2061 10.2751C68.728 10.2857 69.2338 10.0944 69.6183 9.74129C69.8074 9.57292 69.9578 9.36557 70.0592 9.13352C70.1606 8.90147 70.2105 8.65021 70.2055 8.39704C70.2083 8.14401 70.1591 7.8931 70.0608 7.6599C69.9626 7.42671 69.8175 7.2162 69.6345 7.04146C69.4466 6.85606 69.2233 6.71049 68.9778 6.61349C68.7324 6.51648 68.4699 6.47002 68.2061 6.4769L68.2012 6.48014ZM60.0144 11.3945V26.3933H63.3677V6.90719H58.7202L52.8223 21.3818L47.0975 6.90719H42.2656V26.3949H45.4168V11.3945H45.5252L51.5687 26.3933H53.9482L59.8995 11.3945H60.0144Z" fill="#9D9D9D"/>
<path d="M15.4549 15.8496H0V0.394653H15.4549V15.8496Z" fill="#9D9D9D"/>
<path d="M32.5145 15.8496H17.0645V0.394653H32.5145V15.8496Z" fill="#9D9D9D"/>
<path d="M15.4549 32.9189H0V17.464H15.4549V32.9189Z" fill="#9D9D9D"/>
<path d="M32.5145 32.9189H17.0645V17.464H32.5145V32.9189Z" fill="#9D9D9D"/>
</svg>
