<svg width="111" height="25" viewBox="0 0 111 25" fill="none" xmlns="http://www.w3.org/2000/svg">
<path d="M18.64 0.789093H22.8647V14.4885C22.8647 21.6971 18.3588 24.2269 11.8225 24.2269C5.31122 24.2269 0.805298 21.6971 0.805298 14.4885V1.33842C0.805298 0.956088 0.991336 0.789093 1.36488 0.789093H5.59101V14.2746C5.59101 18.5945 7.45871 20.3846 11.824 20.3846C16.2186 20.3846 18.0804 18.5945 18.0804 14.2746V1.33842C18.0804 0.956088 18.2665 0.789093 18.64 0.789093ZM66.4722 4.53622V10.3107H77.1658C77.3518 10.3107 77.4221 10.4059 77.3518 10.6037L76.1799 13.5627C76.1345 13.6889 76.0472 13.7957 75.9326 13.8653C75.8179 13.9349 75.6829 13.963 75.55 13.945H69.2731C67.2223 13.945 66.4722 14.5896 66.4722 15.9959V20.077H80.9451C81.1311 20.077 81.2015 20.1722 81.1311 20.3699L79.9168 23.4462C79.8714 23.5724 79.7841 23.6791 79.6694 23.7487C79.5548 23.8183 79.4198 23.8465 79.2869 23.8285H63.437C62.2227 23.8285 61.7568 23.3993 61.7568 22.4676V2.38873C61.7568 1.26664 62.3633 0.789093 63.9541 0.789093H80.9466C81.1326 0.789093 81.2029 0.884309 81.1326 1.0513L79.9182 4.15828C79.8728 4.28447 79.7855 4.39127 79.6709 4.46085C79.5563 4.53043 79.4212 4.55859 79.2883 4.54061L66.4722 4.53622ZM53.0497 17.449C53.0497 22.056 49.8753 23.8212 45.4163 23.8212H33.6036C32.3658 23.8212 31.9234 23.392 31.9234 22.4603V2.38873C31.9234 1.26664 32.5094 0.789093 34.1207 0.789093H43.7156C47.9168 0.789093 51.9789 1.52885 51.9789 6.63684C52.0658 7.63822 51.8658 8.64366 51.4022 9.53552C50.9386 10.4274 50.2307 11.1688 49.3612 11.673C51.9056 12.3615 53.0497 14.7053 53.0497 17.449ZM36.5685 10.384H44.0613C46.5354 10.384 47.2356 9.40543 47.2356 7.40003C47.2356 5.39463 46.5354 4.441 44.0613 4.441H36.5685V10.384ZM48.3109 17.0198C48.3109 14.8957 47.5872 13.8454 44.9256 13.8454H39.3928C37.3419 13.8454 36.5685 14.49 36.5685 15.8962V20.1693H44.9256C47.5872 20.1693 48.3109 19.1204 48.3109 17.0198ZM110.406 23.8226H106.11C105.978 23.8322 105.847 23.8005 105.734 23.732C105.621 23.6635 105.532 23.5616 105.48 23.4403L100.927 15.0378H96.7539C94.7031 15.0378 93.9297 15.6824 93.9297 17.0886V23.8197H89.828C89.753 23.8304 89.6764 23.8237 89.6044 23.8C89.5323 23.7763 89.4667 23.7364 89.4126 23.6833C89.3584 23.6301 89.3173 23.5653 89.2923 23.4937C89.2673 23.422 89.2592 23.3456 89.2685 23.2704V2.38873C89.2553 1.26664 89.8691 0.789093 91.4497 0.789093H101.091C106.718 0.789093 110.102 2.29205 110.102 7.87758C110.102 12.1975 108.071 13.8923 105.549 14.5603L110.614 23.4154C110.708 23.559 110.708 23.8212 110.405 23.8212L110.406 23.8226ZM105.363 7.96693C105.363 5.62315 104.733 4.48202 101.792 4.48202H93.9253V11.4577H101.792C104.733 11.4577 105.363 10.3356 105.363 7.96693Z" fill="#9D9D9D"/>
</svg>
