<svg width="91" height="38" viewBox="0 0 91 38" fill="none" xmlns="http://www.w3.org/2000/svg">
<g clip-path="url(#clip0_201_23)">
<path d="M6.86662 15.5H0.791069C0.354173 15.5 0 15.8508 0 16.2836V22.3015C0 22.7343 0.354173 23.0851 0.791069 23.0851H6.86662C7.30352 23.0851 7.65769 22.7343 7.65769 22.3015V16.2836C7.65769 15.8508 7.30352 15.5 6.86662 15.5Z" fill="#4C4C4C"/>
<path d="M14.8573 23.4149H8.7817C8.3448 23.4149 7.99063 23.7657 7.99063 24.1985V30.2164C7.99063 30.6492 8.3448 31 8.7817 31H14.8573C15.2941 31 15.6483 30.6492 15.6483 30.2164V24.1985C15.6483 23.7657 15.2941 23.4149 14.8573 23.4149Z" fill="#4C4C4C"/>
<path d="M6.86662 7.58511H0.791069C0.354173 7.58511 0 7.93593 0 8.36868V14.3867C0 14.8194 0.354173 15.1702 0.791069 15.1702H6.86662C7.30352 15.1702 7.65769 14.8194 7.65769 14.3867V8.36868C7.65769 7.93593 7.30352 7.58511 6.86662 7.58511Z" fill="#4C4C4C"/>
<path d="M15.1902 15.1702H9.11465C8.67775 15.1702 8.32358 15.521 8.32358 15.9538V21.9717C8.32358 22.4045 8.67775 22.7553 9.11465 22.7553H15.1902C15.6271 22.7553 15.9813 22.4045 15.9813 21.9717V15.9538C15.9813 15.521 15.6271 15.1702 15.1902 15.1702Z" fill="#4C4C4C"/>
<path d="M22.5149 7.58511H16.4394C16.0025 7.58511 15.6483 7.93593 15.6483 8.36868V14.3867C15.6483 14.8194 16.0025 15.1702 16.4394 15.1702H22.5149C22.9518 15.1702 23.306 14.8194 23.306 14.3867V8.36868C23.306 7.93593 22.9518 7.58511 22.5149 7.58511Z" fill="#4C4C4C"/>
<path d="M30.1726 0H24.0971C23.6602 0 23.306 0.350816 23.306 0.78357V6.80154C23.306 7.23429 23.6602 7.58511 24.0971 7.58511H30.1726C30.6095 7.58511 30.9637 7.23429 30.9637 6.80154V0.78357C30.9637 0.350816 30.6095 0 30.1726 0Z" fill="#4C4C4C"/>
<path d="M22.8479 23.4149H16.7723C16.3354 23.4149 15.9813 23.7657 15.9813 24.1985V30.2164C15.9813 30.6492 16.3354 31 16.7723 31H22.8479C23.2848 31 23.639 30.6492 23.639 30.2164V24.1985C23.639 23.7657 23.2848 23.4149 22.8479 23.4149Z" fill="#4C4C4C"/>
<path d="M6.86662 23.4149H0.791069C0.354173 23.4149 0 23.7657 0 24.1985V30.2164C0 30.6492 0.354173 31 0.791069 31H6.86662C7.30352 31 7.65769 30.6492 7.65769 30.2164V24.1985C7.65769 23.7657 7.30352 23.4149 6.86662 23.4149Z" fill="#4C4C4C"/>
</g>
<path d="M24.5469 31L28.3438 19.4688H31.4219L35.2656 31H32.8047L32.1641 28.8047H27.6328L26.9688 31H24.5469ZM28.1797 27.0078H31.6328L29.9375 21.2031L28.1797 27.0078ZM36.0169 19.4688H37.7591L43.7513 27.375V19.4688H45.8138V31H44.0716L38.1028 23.2109V31H36.0169V19.4688ZM52.1119 31.2031C51.0858 31.2031 50.2525 31.1042 49.6119 30.9062C48.9765 30.7031 48.4895 30.4219 48.1509 30.0625C47.8124 29.7031 47.5806 29.2812 47.4556 28.7969C47.3306 28.3125 47.2681 27.7865 47.2681 27.2188V23.3672C47.2681 22.7839 47.328 22.2448 47.4478 21.75C47.5728 21.25 47.802 20.8151 48.1353 20.4453C48.4739 20.0755 48.9634 19.7891 49.6041 19.5859C50.2447 19.3776 51.0806 19.2734 52.1119 19.2734C53.0963 19.2734 53.8879 19.375 54.4869 19.5781C55.091 19.776 55.5494 20.0573 55.8619 20.4219C56.1744 20.7865 56.3853 21.2161 56.4947 21.7109C56.6041 22.2005 56.6588 22.737 56.6588 23.3203V23.4609L54.3853 23.7266V23.1406C54.3853 22.599 54.3176 22.1823 54.1822 21.8906C54.0468 21.5938 53.815 21.388 53.4869 21.2734C53.1588 21.1536 52.7004 21.0938 52.1119 21.0938C51.2525 21.0938 50.6171 21.2292 50.2056 21.5C49.7942 21.7708 49.5884 22.3021 49.5884 23.0938V27.4531C49.5884 27.9792 49.6796 28.3828 49.8619 28.6641C50.0442 28.9401 50.3202 29.1302 50.69 29.2344C51.065 29.3333 51.5416 29.3828 52.1197 29.3828C52.7082 29.3828 53.1666 29.3333 53.4947 29.2344C53.8228 29.1302 54.052 28.9375 54.1822 28.6562C54.3176 28.3698 54.3853 27.9531 54.3853 27.4062V27.0391H56.6588V27.25C56.6588 27.8177 56.6067 28.3411 56.5025 28.8203C56.3983 29.2995 56.1926 29.7188 55.8853 30.0781C55.578 30.4323 55.1223 30.7083 54.5181 30.9062C53.914 31.1042 53.1119 31.2031 52.1119 31.2031ZM57.8631 19.4688H60.1912V24.375H65.2537V19.4688H67.5819V31H65.2537V26.1953H60.1912V31H57.8631V19.4688ZM74.1456 31.2031C73.1092 31.2031 72.2576 31.0964 71.5909 30.8828C70.9243 30.6693 70.406 30.375 70.0363 30C69.6665 29.625 69.406 29.1875 69.255 28.6875C69.1092 28.1875 69.0363 27.6536 69.0363 27.0859V23.4766C69.0363 22.8932 69.1092 22.349 69.255 21.8438C69.4008 21.3333 69.6586 20.8854 70.0284 20.5C70.3982 20.1146 70.9165 19.8151 71.5831 19.6016C72.2498 19.3828 73.104 19.2734 74.1456 19.2734C75.1404 19.2734 75.9581 19.388 76.5988 19.6172C77.2446 19.8464 77.7472 20.1615 78.1066 20.5625C78.4711 20.9583 78.7238 21.4167 78.8644 21.9375C79.0102 22.4583 79.0831 23.0104 79.0831 23.5938V26.9609C79.0831 27.5286 79.0102 28.0677 78.8644 28.5781C78.7185 29.0833 78.4633 29.5339 78.0988 29.9297C77.7394 30.3255 77.2394 30.638 76.5988 30.8672C75.9581 31.0911 75.1404 31.2031 74.1456 31.2031ZM74.1456 29.3828C75.0206 29.3828 75.6743 29.2396 76.1066 28.9531C76.5389 28.6667 76.755 28.1302 76.755 27.3438V23.1641C76.755 22.388 76.5363 21.849 76.0988 21.5469C75.6665 21.2448 75.0154 21.0938 74.1456 21.0938C73.2863 21.0938 72.6066 21.2422 72.1066 21.5391C71.6118 21.8307 71.3644 22.3724 71.3644 23.1641V27.3438C71.3644 28.1354 71.6118 28.6745 72.1066 28.9609C72.6014 29.2422 73.281 29.3828 74.1456 29.3828ZM80.5375 31V19.4688H85.5141C86.5349 19.4688 87.324 19.612 87.8812 19.8984C88.4385 20.1849 88.824 20.5859 89.0375 21.1016C89.2562 21.6172 89.3656 22.2214 89.3656 22.9141C89.3656 23.388 89.3214 23.8333 89.2328 24.25C89.1495 24.6615 88.9854 25.026 88.7406 25.3438C88.4958 25.6615 88.1391 25.9167 87.6703 26.1094L89.8969 31H87.4906L85.4672 26.4453H82.8578V31H80.5375ZM82.8578 24.7891H85.7094C86.1052 24.7891 86.4047 24.7109 86.6078 24.5547C86.8161 24.3932 86.9568 24.1797 87.0297 23.9141C87.1078 23.6432 87.1469 23.3438 87.1469 23.0156C87.1469 22.7031 87.113 22.401 87.0453 22.1094C86.9828 21.8177 86.8552 21.5807 86.6625 21.3984C86.475 21.2109 86.1885 21.1172 85.8031 21.1172H82.8578V24.7891Z" fill="#4C4C4C"/>
<defs>
<clipPath id="clip0_201_23">
<rect width="31" height="31" fill="white"/>
</clipPath>
</defs>
</svg>
