<svg width="20" height="20" viewBox="0 0 20 20" fill="none" xmlns="http://www.w3.org/2000/svg">
<path d="M17.5 2.5V1.5H18.5V2.5H17.5ZM9.87377 11.5404C9.48325 11.931 8.85008 11.931 8.45956 11.5404C8.06904 11.1499 8.06904 10.5168 8.45956 10.1262L9.87377 11.5404ZM16.5 9.16667V2.5H18.5V9.16667H16.5ZM17.5 3.5H10.8333V1.5H17.5V3.5ZM18.2071 3.20711L9.87377 11.5404L8.45956 10.1262L16.7929 1.79289L18.2071 3.20711Z" fill="white"/>
<path d="M16.6667 12.5V12.5C16.6667 13.5856 16.6667 14.1284 16.5278 14.5688C16.2335 15.5023 15.5023 16.2335 14.5688 16.5278C14.1284 16.6667 13.5856 16.6667 12.5 16.6667H9.33332C6.5049 16.6667 5.09068 16.6667 4.212 15.788C3.33332 14.9093 3.33332 13.4951 3.33332 10.6667V7.49999C3.33332 6.41439 3.33332 5.87158 3.47217 5.43121C3.7665 4.49772 4.49771 3.76651 5.43121 3.47218C5.87158 3.33333 6.41438 3.33333 7.49999 3.33333V3.33333" stroke="white" stroke-width="2" stroke-linecap="round"/>
</svg>
