<svg width="58" height="58" viewBox="0 0 58 58" fill="none" xmlns="http://www.w3.org/2000/svg">
<rect width="58" height="58" rx="29" fill="white"/>
<g clip-path="url(#clip0_224_137)">
<path d="M20.8666 29.5H14.7911C14.3542 29.5 14 29.8508 14 30.2836V36.3015C14 36.7343 14.3542 37.0851 14.7911 37.0851H20.8666C21.3035 37.0851 21.6577 36.7343 21.6577 36.3015V30.2836C21.6577 29.8508 21.3035 29.5 20.8666 29.5Z" fill="#4C4C4C"/>
<path d="M28.8573 37.4149H22.7817C22.3448 37.4149 21.9906 37.7657 21.9906 38.1985V44.2165C21.9906 44.6492 22.3448 45 22.7817 45H28.8573C29.2941 45 29.6483 44.6492 29.6483 44.2165V38.1985C29.6483 37.7657 29.2941 37.4149 28.8573 37.4149Z" fill="#4C4C4C"/>
<path d="M20.8666 21.5851H14.7911C14.3542 21.5851 14 21.9359 14 22.3687V28.3866C14 28.8194 14.3542 29.1702 14.7911 29.1702H20.8666C21.3035 29.1702 21.6577 28.8194 21.6577 28.3866V22.3687C21.6577 21.9359 21.3035 21.5851 20.8666 21.5851Z" fill="#4C4C4C"/>
<path d="M29.1902 29.1702H23.1146C22.6778 29.1702 22.3236 29.521 22.3236 29.9538V35.9718C22.3236 36.4045 22.6778 36.7553 23.1146 36.7553H29.1902C29.6271 36.7553 29.9813 36.4045 29.9813 35.9718V29.9538C29.9813 29.521 29.6271 29.1702 29.1902 29.1702Z" fill="#4C4C4C"/>
<path d="M36.5149 21.5851H30.4394C30.0025 21.5851 29.6483 21.9359 29.6483 22.3687V28.3866C29.6483 28.8194 30.0025 29.1702 30.4394 29.1702H36.5149C36.9518 29.1702 37.306 28.8194 37.306 28.3866V22.3687C37.306 21.9359 36.9518 21.5851 36.5149 21.5851Z" fill="#4C4C4C"/>
<path d="M44.1726 14H38.0971C37.6602 14 37.306 14.3508 37.306 14.7836V20.8015C37.306 21.2343 37.6602 21.5851 38.0971 21.5851H44.1726C44.6095 21.5851 44.9637 21.2343 44.9637 20.8015V14.7836C44.9637 14.3508 44.6095 14 44.1726 14Z" fill="#4C4C4C"/>
<path d="M36.8479 37.4149H30.7723C30.3354 37.4149 29.9813 37.7657 29.9813 38.1985V44.2165C29.9813 44.6492 30.3354 45 30.7723 45H36.8479C37.2848 45 37.639 44.6492 37.639 44.2165V38.1985C37.639 37.7657 37.2848 37.4149 36.8479 37.4149Z" fill="#4C4C4C"/>
<path d="M20.8666 37.4149H14.7911C14.3542 37.4149 14 37.7657 14 38.1985V44.2165C14 44.6492 14.3542 45 14.7911 45H20.8666C21.3035 45 21.6577 44.6492 21.6577 44.2165V38.1985C21.6577 37.7657 21.3035 37.4149 20.8666 37.4149Z" fill="#4C4C4C"/>
</g>
<defs>
<clipPath id="clip0_224_137">
<rect width="31" height="31" fill="white" transform="translate(14 14)"/>
</clipPath>
</defs>
</svg>
